<?xml version="1.0" encoding="UTF-8" standalone="no"?>
<svg
   width="1090.3"
   height="330.98001"
   version="1.1"
   viewBox="0 0 288.47601 87.572"
   id="svg12"
   sodipodi:docname="s0ad-logo.svg"
   inkscape:version="1.4.2 (ebf0e940, 2025-05-08)"
   xmlns:inkscape="http://www.inkscape.org/namespaces/inkscape"
   xmlns:sodipodi="http://sodipodi.sourceforge.net/DTD/sodipodi-0.dtd"
   xmlns="http://www.w3.org/2000/svg"
   xmlns:svg="http://www.w3.org/2000/svg">
  <defs
     id="defs12" />
  <sodipodi:namedview
     id="namedview12"
     pagecolor="#ffffff"
     bordercolor="#000000"
     borderopacity="0.25"
     inkscape:showpageshadow="2"
     inkscape:pageopacity="0.0"
     inkscape:pagecheckerboard="0"
     inkscape:deskcolor="#d1d1d1"
     inkscape:zoom="0.34"
     inkscape:cx="739.70588"
     inkscape:cy="167.64706"
     inkscape:window-width="1528"
     inkscape:window-height="717"
     inkscape:window-x="157"
     inkscape:window-y="123"
     inkscape:window-maximized="0"
     inkscape:current-layer="g10" />
  <g
     transform="translate(-91.012,-49.959)"
     stroke-width="0.26458"
     id="g10">
    <g
       aria-label="SØADMIN"
       id="g8"
       style="fill:#f2f2f2"
       transform="translate(14.816704)">
      <path
         d="m 183.9,81.918 q 0,-7.6609 4.476,-12.309 4.476,-4.6482 12.223,-4.6482 7.8331,0 16.01,1.5494 l -1.7216,13.772 q -8.5217,-1.9798 -11.707,-1.9798 -4.0457,0 -4.0457,3.271 0,1.2912 1.8937,2.4963 1.9798,1.2051 4.7343,2.5823 2.7545,1.2912 5.509,3.1849 2.7545,1.8076 4.6482,5.2507 1.9798,3.4431 1.9798,7.9192 0,8.1774 -4.39,12.653 -4.39,4.476 -12.481,4.476 -8.0052,0 -15.666,-2.4963 l 0.94685,-12.826 q 9.2103,2.6684 12.826,2.6684 3.6153,0 3.6153,-3.1849 0,-1.6355 -1.9798,-3.0127 -1.8937,-1.3772 -4.6482,-2.7545 -2.7545,-1.3772 -5.5951,-3.1849 -2.7545,-1.8076 -4.7343,-5.2507 -1.8937,-3.4431 -1.8937,-8.1774 z"
         fill="#333"
         id="path1"
         style="fill:#f2f2f2" />
      <path
         d="m 242.52,64.961 q 2.238,0 4.3039,0.25823 l 1.8937,-4.7343 h 14.289 l -4.3039,10.932 q 4.8204,6.2837 4.8204,20.659 0,14.289 -4.9925,21.175 -4.9925,6.8862 -16.269,6.8862 -1.0329,0 -2.7545,-0.17216 l -2.1519,5.4229 h -14.461 l 4.3039,-10.846 q -5.8533,-6.628 -5.8533,-21.606 0,-15.064 4.9064,-21.519 4.9925,-6.4558 16.269,-6.4558 z m 6.1976,26.598 q 0,-7.9192 -1.2912,-10.674 -1.2051,-2.8406 -5.0786,-2.8406 -3.7874,0 -4.9064,2.8406 -1.119,2.7545 -1.119,10.588 v 2.0659 q 0,8.4356 1.2051,11.276 1.2912,2.8406 5.0786,2.8406 3.7874,0 4.9064,-2.6684 1.2051,-2.7545 1.2051,-10.674 z"
         fill="#333"
         id="path2"
         style="fill:#f2f2f2" />
      <path
         d="m 307.77,119.28 h -14.375 l -1.6355,-8.4356 h -10.157 l -1.6355,8.4356 h -13.686 l 9.8129,-53.454 h 21.864 z m -17.646,-18.507 -3.0127,-19.109 h -0.60255 l -3.0127,19.109 z"
         fill="#666"
         id="path3"
         style="fill:#f2f2f2" />
      <path
         d="m 352.01,91.387 q 0,27.889 -22.036,27.889 H 312.242 V 65.822 h 18.076 q 11.793,0 16.699,6.628 4.9925,6.5419 4.9925,18.937 z m -22.294,15.494 q 4.5621,0 5.8533,-3.1849 1.3772,-3.271 1.3772,-10.846 0,-7.6609 -1.4633,-10.846 -1.3772,-3.1849 -6.0254,-3.1849 h -2.5823 v 28.061 z"
         fill="#666"
         id="path4"
         style="fill:#f2f2f2" />
    </g>
    <g
       aria-label="S"
       id="g9">
      <path
         d="m 138.68,86.094 2.8525,3.5967 1.6433,1.9844 q 4.7749,5.8911 4.7749,12.464 0,6.3872 -4.2168,11.193 -5.7671,6.6042 -15.1,6.6042 -7.2244,0 -11.844,-4.4648 -4.6199,-4.4338 -4.6199,-11.379 0,-8.4956 7.1934,-14.17 3.8137,-3.0076 7.0383,-3.0076 1.6743,0 2.7285,0.96118 1.0542,0.96118 1.0542,2.4805 0,2.0464 -2.4185,3.5347 l -2.4805,1.5193 q -2.1394,1.3333 -3.5657,3.7207 -1.4263,2.3874 -1.4263,4.7129 0,3.6897 2.4805,6.0772 2.5115,2.4185 6.3562,2.4185 4.2478,0 7.3794,-3.1936 3.1316,-3.1626 3.1316,-7.4724 0,-2.7285 -1.2712,-4.9609 -1.2712,-2.2324 -5.488,-6.9143 -2.9456,-3.2556 -4.2168,-5.7051 h -8.3716 q -4.2788,0 -4.2788,-2.9456 0,-2.1394 1.4883,-3.2866 1.5193,-1.1782 4.2478,-1.1782 h 5.302 q 0.62012,-6.1392 5.6121,-10.139 4.9919,-4.0308 11.968,-4.0308 5.24,0 8.5266,2.8835 3.3176,2.8835 3.3176,7.4724 0,6.1082 -5.24,9.3638 -2.9766,1.8604 -9.4568,1.8604 z m -3.7207,-7.4104 h 7.4414 q 6.2942,0 6.2942,-3.6587 0,-1.4263 -1.3022,-2.2944 -1.2712,-0.86816 -3.4106,-0.86816 -3.3486,0 -6.1082,2.0774 -2.7285,2.0774 -2.9146,4.7439 z"
         fill="#ffffff"
         id="path8" />
    </g>
  </g>
  <g
     transform="translate(-0.79421,-0.38799)"
     id="g12">
    <ellipse
       cx="43.908356"
       cy="43.235889"
       rx="42.055889"
       ry="40.995968"
       fill="#335168"
       stroke-width="0"
       id="ellipse10-7"
       style="fill:#ececec" />
    <ellipse
       cx="43.807999"
       cy="43.702999"
       rx="39.41"
       ry="38.349998"
       fill="#335168"
       stroke-width="0"
       id="ellipse10" />
    <g
       transform="rotate(-28.881)"
       fill="#ffffff"
       stroke-width="0.26458"
       aria-label="ص"
       id="g11">
      <path
         d="m 40.164,37.608 q 3.2597,0 4.8119,2.0179 1.6298,2.0179 1.6298,6.3641 0,3.9582 -1.6298,8.6924 -1.5522,4.6567 -3.6477,6.5969 -2.0179,1.9403 -6.1313,3.2597 -4.1134,1.2418 -8.382,1.2418 -1.6298,0 -3.2597,-0.23283 l -1.7074,5.9761 -2.4836,-0.38806 1.7074,-5.9761 -2.4836,-0.6985 q -1.1642,3.6477 -2.7164,6.5969 -2.794,5.1223 -7.5283,8.2268 -4.7343,3.0268 -9.779,3.0268 -5.5104,0 -9.2357,-3.1044 -3.6477,-3.1821 -4.0358,-8.1492 1.3194,-5.2776 3.8806,-10.322 2.5612,-5.0447 6.5969,-10.633 l 2.4836,5.9761 q -3.9582,3.5701 -7.2178,8.4596 2.4059,2.8716 5.1223,4.191 2.794,1.3194 6.4417,1.3194 7.6835,0 11.952,-5.3552 l -4.5791,-5.4328 4.3462,-11.331 q 3.6477,4.9671 10.089,6.2089 1.7074,-5.3552 2.9492,-7.9939 1.2418,-2.6388 2.7164,-4.2686 1.7074,-1.9403 4.4238,-3.1044 2.794,-1.1642 5.6656,-1.1642 z M 29.221,54.527 q 3.1044,0 6.2865,-0.54328 3.2597,-0.62089 5.3552,-1.5522 2.0955,-0.93133 2.0955,-1.7851 0,-0.62089 -1.1642,-0.93133 -1.1642,-0.38806 -3.1044,-0.38806 -3.0268,0 -6.2089,0.93133 -3.1044,0.93133 -4.6567,2.2507 l -0.6985,1.9403 q 0.6985,0.07761 2.0955,0.07761 z"
         id="path10" />
    </g>
  </g>
</svg>
